<svg version="1.1" id="Vrstva_1" xmlns="http://www.w3.org/2000/svg" xmlns:xlink="http://www.w3.org/1999/xlink" x="0px" y="0px"
	 viewBox="-1.000 -1.000 30.500 29.900" enable-background="new 0 0 28.5 27.9" xml:space="preserve">
<g>
	<path fill="#231F20" d="M0,13.6c0,4.8,2.4,9,6.2,11.4c-3.2-3.7-5.4-8.4-6-13.5C0.1,12.2,0,12.9,0,13.6z"/>
	<path fill="#231F20" d="M4.8,10.9c0-3.2,0.7-6.2,1.8-9c-2,1.2-3.7,2.9-4.8,5c0,0.4,0,0.9,0,1.3c0,7.4,3.2,14,8.3,18.6
		c0.5,0.1,0.9,0.2,1.4,0.3C7.3,23,4.8,17.2,4.8,10.9z"/>
	<path fill="#231F20" d="M28.5,15.1c-1.7-2.8-4.8-4.7-8.4-4.7c-1.3,0-2.6,0.3-3.7,0.7c0.4-0.1,0.8-0.1,1.2-0.1
		c5.1,0,9.2,4.1,9.2,9.2c0,0,0,0,0,0C27.7,18.7,28.3,17,28.5,15.1z"/>
	<path fill="#231F20" d="M10.5,13.6c2.1-3.5,5.8-5.8,10.1-5.8c2.6,0,5,0.9,7,2.3c-0.6-2.1-1.6-4-3-5.5c-0.1,0-0.3,0-0.4,0
		C18.1,4.5,12.8,8.3,10.5,13.6z"/>
	<path fill="#231F20" d="M20.1,1.4c-1.8-0.9-3.8-1.4-6-1.4c-0.3,0-0.5,0-0.8,0C9.6,3.5,7.4,8.5,7.4,14c0,2,0.3,4,0.9,5.8
		C8.1,18.9,8,17.9,8,17C8,9.5,13.1,3.2,20.1,1.4z"/>
	<circle fill="#231F20" cx="17.5" cy="21" r="6.9"/>
</g>
<script  type="text/javascript">
    <![CDATA[
         var c=window.location.search.split('color=')[1]; c=parseInt(c,16); if(!isNaN(c)){c=c.toString(16);var p=document.getElementsByTagName('path');for(var i=0,l=p.length;i<l;i++){var s=p[i].style;s.fill='#'+c;} var p2=document.getElementsByTagName('polygon');for(var i=0,l=p2.length;i<l;i++){var s=p2[i].style;s.fill='#'+c;} var p3=document.getElementsByTagName('circle');for(var i=0,l=p3.length;i<l;i++){var s=p3[i].style;s.fill='#'+c;} }
        ]]>
</script>
</svg>
